<?xml version="1.0" encoding="UTF-8" standalone="no"?>
<svg
   width="16"
   height="16"
   version="1.1"
   id="svg1"
   sodipodi:docname="Persistence.svg"
   inkscape:version="1.3.2 (091e20e, 2023-11-25, custom)"
   xmlns:inkscape="http://www.inkscape.org/namespaces/inkscape"
   xmlns:sodipodi="http://sodipodi.sourceforge.net/DTD/sodipodi-0.dtd"
   xmlns="http://www.w3.org/2000/svg"
   xmlns:svg="http://www.w3.org/2000/svg">
  <defs
     id="defs1" />
  <sodipodi:namedview
     id="namedview1"
     pagecolor="#ffffff"
     bordercolor="#000000"
     borderopacity="0.25"
     inkscape:showpageshadow="2"
     inkscape:pageopacity="0.0"
     inkscape:pagecheckerboard="0"
     inkscape:deskcolor="#d1d1d1"
     inkscape:zoom="45.254834"
     inkscape:cx="4.5188543"
     inkscape:cy="7.7229319"
     inkscape:window-width="1920"
     inkscape:window-height="1009"
     inkscape:window-x="-8"
     inkscape:window-y="-8"
     inkscape:window-maximized="1"
     inkscape:current-layer="svg1" />
  <path
     style="color:#000000;fill:#8eef97;stroke-width:1.13786;stroke-miterlimit:3.9;-inkscape-stroke:none"
     d="m 6.1383078,1.8289194 v 0 5.2052788"
     id="path26" />
  <path
     style="color:#000000;fill:#ff7f2a;stroke-width:1.13786;stroke-miterlimit:3.9;-inkscape-stroke:none"
     d="M 2.7177783,1.8726264 V 7.0792361 H 7.436672 V 1.8726264 Z"
     id="path27" />
  <g
     id="g23"
     transform="matrix(1.1797235,0,0,1.0974821,-1.9803779,-0.74032436)">
    <g
       id="path23">
      <path
         style="color:#000000;fill:#ff7f2a;fill-rule:evenodd;-inkscape-stroke:none"
         d="m 5.9827798,10.009231 -2.5,-4.3249999 h 5 z"
         id="path24" />
      <path
         style="color:#000000;fill:#ff7f2a;fill-rule:evenodd;-inkscape-stroke:none"
         d="m 2.9042969,5.3515625 3.078125,5.3242185 3.078125,-5.3242185 z m 1.15625,0.6660156 h 3.84375 l -1.921875,3.3242188 z"
         id="path25" />
    </g>
  </g>
  <path
     style="color:#000000;fill:#8eef99;stroke-width:1.13786;stroke-miterlimit:3.9;-inkscape-stroke:none"
     d="m 10.874616,14.214432 v 0 -5.2052746"
     id="path21" />
  <path
     style="color:#000000;fill:#ff7f2a;stroke-width:1.13786;stroke-miterlimit:3.9;-inkscape-stroke:none"
     d="M 8.5157654,9.0092239 V 14.213686 H 13.234661 V 9.0092239 Z"
     id="path22" />
  <g
     id="g18"
     transform="matrix(1.1797235,0,0,1.0974821,-0.9197177,-0.78451853)">
    <g
       id="path18">
      <path
         style="color:#000000;fill:#ff7f2a;fill-rule:evenodd;-inkscape-stroke:none"
         d="M 9.9975398,6.0387677 12.49754,10.363768 H 7.4975398 Z"
         id="path19" />
      <path
         style="color:#000000;fill:#ff7f2a;fill-rule:evenodd;-inkscape-stroke:none"
         d="M 9.9980469,5.3730469 6.9199219,10.697266 H 13.076172 Z M 9.9960938,6.703125 11.919922,10.03125 H 8.0742188 Z"
         id="path20" />
    </g>
  </g>
  <path
     style="fill:none;fill-opacity:1;stroke:none;stroke-width:0.0633378;stroke-miterlimit:3.9;stroke-dasharray:none;stroke-opacity:1"
     d="M 8.5282841,12.579156 V 10.945163 L 7.897492,10.941363 7.2667,10.937563 9.0672056,8.0396422 C 10.057484,6.4455935 10.871403,5.141703 10.87592,5.1419165 c 0.004,2.129e-4 0.817867,1.3042767 1.80745,2.8979208 l 1.799241,2.8975297 -0.629527,0.0036 -0.629529,0.0036 v 1.633982 1.633988 H 10.87592 8.5282841 Z"
     id="path11" />
</svg>
